<?xml version="1.0" encoding="UTF-8"?>
<svg id="Layer_2" data-name="Layer 2" xmlns="http://www.w3.org/2000/svg" viewBox="0 0 55.39 55.39">
  <defs>
    <style>
      .cls-1 {
        fill: #3746a0;
      }

      .cls-1, .cls-2 {
        stroke-width: 0px;
      }

      .cls-2 {
        fill: #f8f9fa;
      }
    </style>
  </defs>
  <g id="_图层_1" data-name="图层 1">
    <g>
      <circle class="cls-2" cx="27.7" cy="27.7" r="27.7"/>
      <g>
        <path class="cls-1" d="M46.65,32.22c.03,2.49-.35,4.61-1.09,6.67-.62,1.72-1.92,2.62-3.68,2.97-1.08.22-2.12.11-3.17-.17-2.13-.56-4.25-1.12-6.4-1.61-2.21-.51-4.47-.64-6.72-.39-2.35.26-4.65.8-6.92,1.45-1.06.3-2.13.64-3.22.79-2.22.31-5.04-.68-5.87-3.74-.41-1.53-.67-3.06-.79-4.63-.25-3.08.3-6.03,1.6-8.81,2.7-5.79,7.18-9.42,13.4-10.88,1.5-.35,3.03-.53,4.57-.44,4.41.28,8.34,1.76,11.73,4.66,2.1,1.8,3.79,3.89,4.89,6.43,1.1,2.55,1.71,5.2,1.66,7.69ZM44.42,32.04c-.04-.57-.03-1.21-.13-1.83-.46-2.73-1.33-5.29-3.05-7.54-3.02-3.96-6.98-6.25-11.9-6.86-1.91-.24-3.79-.03-5.65.43-6.33,1.56-11.57,7.14-12.45,13.46-.35,2.52-.23,4.97.41,7.42.33,1.28,1.03,2.16,2.36,2.46.78.17,1.55.13,2.31-.12,2.44-.8,4.92-1.44,7.46-1.87,2.11-.35,4.23-.41,6.34-.21,2.62.25,5.17.91,7.69,1.65.83.24,1.66.48,2.51.61,1.5.22,2.77-.66,3.28-2.08.63-1.77.73-3.62.82-5.53Z"/>
        <path class="cls-1" d="M28.11,34.55c-.91,0-1.7-.54-2.03-1.4-.3-.78-.13-1.54.6-2.17,1.95-1.7,3.91-3.38,5.87-5.06,1.24-1.06,2.48-2.12,3.72-3.19.14-.12.28-.24.42-.35.41-.32.72-.33,1.08-.02.32.27.41.65.14,1.05-.34.52-.72,1.01-1.11,1.49-1.56,1.96-3.13,3.92-4.7,5.88-.8,1-1.6,1.99-2.42,2.98-.47.57-.91.78-1.58.78Z"/>
        <path class="cls-1" d="M27.72,24.1h0c-.59,0-1.08-.48-1.08-1.08v-3.7c0-.59.48-1.08,1.08-1.08h0c.59,0,1.08.48,1.08,1.08v3.7c0,.59-.48,1.08-1.08,1.08Z"/>
        <path class="cls-1" d="M21.48,26.24h0c-.42.42-1.1.42-1.52,0l-2.62-2.62c-.42-.42-.42-1.1,0-1.52h0c.42-.42,1.1-.42,1.52,0l2.62,2.62c.42.42.42,1.1,0,1.52Z"/>
        <path class="cls-1" d="M19.45,32.43h0c0,.59-.48,1.08-1.08,1.08h-3.7c-.59,0-1.08-.48-1.08-1.08h0c0-.59.48-1.08,1.08-1.08h3.7c.59,0,1.08.48,1.08,1.08Z"/>
        <path class="cls-1" d="M41.97,32.43h0c0,.59-.48,1.08-1.08,1.08h-3.7c-.59,0-1.08-.48-1.08-1.08h0c0-.59.48-1.08,1.08-1.08h3.7c.59,0,1.08.48,1.08,1.08Z"/>
      </g>
    </g>
  </g>
</svg>